<?xml version="1.0" ?><!DOCTYPE svg  PUBLIC '-//W3C//DTD SVG 1.1//EN'  'http://www.w3.org/Graphics/SVG/1.1/DTD/svg11.dtd'><svg enable-background="new 0 0 65 65" height="65px" id="Layer_1" version="1.1" viewBox="0 0 65 65" width="65px" xml:space="preserve" xmlns="http://www.w3.org/2000/svg" xmlns:xlink="http://www.w3.org/1999/xlink"><g><g><path d="M32.5,62.5c-16.542,0-30-13.458-30-30s13.458-30,30-30s30,13.458,30,30S49.042,62.5,32.5,62.5z" fill="#0258A0"/><path d="M32.5,2.5c16.542,0,30,13.458,30,30s-13.458,30-30,30" fill="#003E7C"/><path d="M32.5,4.5c15.439,0,28,12.561,28,28s-12.561,28-28,28s-28-12.561-28-28S17.061,4.5,32.5,4.5 M32.5,0.5    c-17.673,0-32,14.326-32,32s14.327,32,32,32s32-14.326,32-32S50.173,0.5,32.5,0.5L32.5,0.5z" fill="#229BFF"/></g><g><circle cx="32.5" cy="31.834" fill="#04345B" r="18.166"/><path d="M32.5,50.5c-10.292,0-18.666-8.374-18.666-18.666S22.208,13.168,32.5,13.168s18.666,8.374,18.666,18.666    S42.792,50.5,32.5,50.5z M32.5,14.168c-9.741,0-17.666,7.925-17.666,17.666S22.759,49.5,32.5,49.5s17.666-7.925,17.666-17.666    S42.241,14.168,32.5,14.168z" fill="#229BFF"/></g><g><circle cx="32.5" cy="31.835" fill="#031928" r="9.709"/><path d="M32.5,42.042c-5.629,0-10.209-4.579-10.209-10.207c0-5.629,4.58-10.209,10.209-10.209    s10.209,4.58,10.209,10.209C42.709,37.463,38.129,42.042,32.5,42.042z M32.5,22.626c-5.078,0-9.209,4.131-9.209,9.209    c0,5.077,4.131,9.207,9.209,9.207s9.209-4.13,9.209-9.207C41.709,26.757,37.578,22.626,32.5,22.626z" fill="#229BFF"/></g><g><circle cx="45.672" cy="19.646" fill="#FFB127" r="2.562"/><path d="M45.672,17.083c1.416,0,2.562,1.147,2.562,2.562s-1.146,2.562-2.562,2.562" fill="#FF7C24"/></g><g><circle cx="46.005" cy="27.772" fill="#FFB127" r="1.312"/><path d="M46.004,26.459c0.726,0,1.312,0.588,1.312,1.313c0,0.723-0.587,1.311-1.312,1.311" fill="#FF7C24"/></g><g><path d="M32.984,14.954c0,0.268-0.217,0.484-0.484,0.484l0,0c-0.268,0-0.484-0.217-0.484-0.484v-3.115    c0-0.268,0.217-0.484,0.484-0.484l0,0c0.268,0,0.484,0.217,0.484,0.484V14.954z" fill="#6ED6FF"/><path d="M32.984,51.829c0,0.268-0.217,0.484-0.484,0.484l0,0c-0.268,0-0.484-0.217-0.484-0.484v-3.115    c0-0.268,0.217-0.484,0.484-0.484l0,0c0.268,0,0.484,0.217,0.484,0.484V51.829z" fill="#6ED6FF"/></g><g><path d="M49.38,32.318c-0.268,0-0.484-0.217-0.484-0.484l0,0c0-0.268,0.217-0.484,0.484-0.484h3.115    c0.268,0,0.484,0.217,0.484,0.484l0,0c0,0.268-0.217,0.484-0.484,0.484H49.38z" fill="#6ED6FF"/><path d="M12.505,32.318c-0.269,0-0.485-0.217-0.485-0.484l0,0c0-0.268,0.217-0.484,0.485-0.484h3.114    c0.268,0,0.484,0.217,0.484,0.484l0,0c0,0.268-0.217,0.484-0.484,0.484H12.505z" fill="#6ED6FF"/></g><g><g><circle cx="32.5" cy="16.948" fill="#229BFF" r="0.334"/><circle cx="32.5" cy="18.738" fill="#229BFF" r="0.334"/><circle cx="32.5" cy="20.528" fill="#229BFF" r="0.334"/></g><g><circle cx="32.5" cy="43.293" fill="#229BFF" r="0.334"/><circle cx="32.5" cy="45.083" fill="#229BFF" r="0.334"/><circle cx="32.5" cy="46.873" fill="#229BFF" r="0.334"/></g></g><g><g><circle cx="43.08" cy="21.331" fill="#229BFF" r="0.334"/><circle cx="41.814" cy="22.596" fill="#229BFF" r="0.334"/><circle cx="40.548" cy="23.862" fill="#229BFF" r="0.334"/></g><g><circle cx="24.451" cy="39.958" fill="#229BFF" r="0.334"/><circle cx="23.186" cy="41.225" fill="#229BFF" r="0.334"/><circle cx="21.92" cy="42.49" fill="#229BFF" r="0.334"/></g></g><g><g><circle cx="47.462" cy="31.91" fill="#229BFF" r="0.333"/><circle cx="45.672" cy="31.91" fill="#229BFF" r="0.333"/><circle cx="43.882" cy="31.91" fill="#229BFF" r="0.333"/></g><g><circle cx="21.117" cy="31.909" fill="#229BFF" r="0.334"/><circle cx="19.327" cy="31.91" fill="#229BFF" r="0.334"/><circle cx="17.537" cy="31.91" fill="#229BFF" r="0.334"/></g></g><g><g><circle cx="43.08" cy="42.489" fill="#229BFF" r="0.334"/><circle cx="41.814" cy="41.223" fill="#229BFF" r="0.334"/><circle cx="40.549" cy="39.958" fill="#229BFF" r="0.334"/></g><g><path d="M24.217,24.097c-0.132-0.129-0.131-0.342,0-0.472c0.129-0.13,0.342-0.131,0.471-0.001     c0.133,0.131,0.131,0.343,0,0.473C24.558,24.228,24.346,24.229,24.217,24.097z" fill="#229BFF"/><circle cx="23.186" cy="22.595" fill="#229BFF" r="0.334"/><circle cx="21.92" cy="21.329" fill="#229BFF" r="0.334"/></g></g><g><polygon fill="#04345B" points="34.074,30.257 32.5,25.713 30.925,30.258 32.501,29.712   "/><polygon fill="#04345B" points="34.076,33.408 32.501,33.954 30.924,33.407 32.5,37.955   "/><polygon fill="#04345B" points="34.076,33.408 38.622,31.833 34.074,30.257 34.621,31.834   "/><polygon fill="#04345B" points="30.925,30.258 26.38,31.833 30.924,33.407 30.379,31.834   "/></g></g></svg>